HIERARCHY
ROOT Hips
{
	OFFSET	0.00	0.00	0.00
	CHANNELS 6 Xposition Yposition Zposition Zrotation Xrotation Yrotation
	JOINT LeftUpLeg
	{
		OFFSET	 0.126116	-0.014019	-0.065224
		CHANNELS 3 Zrotation Xrotation Yrotation
		JOINT LeftLeg
		{
			OFFSET	 0.000000	 0.000000	 0.569914
			CHANNELS 3 Zrotation Xrotation Yrotation
			JOINT LeftFoot
			{
				OFFSET	 0.000000	 0.000000	 0.544423
				CHANNELS 3 Zrotation Xrotation Yrotation
				JOINT LeftToeBase
				{
					OFFSET	 0.000000	 0.000000	 0.207117
					CHANNELS 3 Zrotation Xrotation Yrotation
					End Site
					{
						OFFSET	 0.000000	 0.000000	 0.207117
					}
				}
			}
		}
	}
	JOINT RightUpLeg
	{
		OFFSET	-0.124023	-0.008373	-0.065224
		CHANNELS 3 Zrotation Xrotation Yrotation
		JOINT RightLeg
		{
			OFFSET	 0.000000	 0.000000	 0.570047
			CHANNELS 3 Zrotation Xrotation Yrotation
			JOINT RightFoot
			{
				OFFSET	 0.000000	 0.000000	 0.544354
				CHANNELS 3 Zrotation Xrotation Yrotation
				JOINT RightToeBase
				{
					OFFSET	 0.000000	 0.000000	 0.207540
					CHANNELS 3 Zrotation Xrotation Yrotation
					End Site
					{
						OFFSET	 0.000000	 0.000000	 0.207540
					}
				}
			}
		}
	}
	JOINT Spine
	{
		OFFSET	 0.000184	-0.007763	 0.117403
		CHANNELS 3 Zrotation Xrotation Yrotation
		JOINT Spine1
		{
			OFFSET	 0.000000	 0.000000	 0.137269
			CHANNELS 3 Zrotation Xrotation Yrotation
			JOINT Spine2
			{
				OFFSET	 0.000000	 0.000000	 0.156879
				CHANNELS 3 Zrotation Xrotation Yrotation
				JOINT LeftShoulder
				{
					OFFSET	 0.080501	-0.002496	 0.160144
					CHANNELS 3 Zrotation Xrotation Yrotation
					JOINT LeftArm
					{
						OFFSET	 0.000000	 0.000000	 0.164363
						CHANNELS 3 Zrotation Xrotation Yrotation
						JOINT LeftForeArm
						{
							OFFSET	 0.000000	 0.000000	 0.364576
							CHANNELS 3 Zrotation Xrotation Yrotation
							JOINT LeftHand
							{
								OFFSET	 0.000000	 0.000000	 0.360812
								CHANNELS 3 Zrotation Xrotation Yrotation
								JOINT LeftHandIndex1
								{
									OFFSET	 0.000000	 0.000000	 0.086006
									CHANNELS 3 Zrotation Xrotation Yrotation
									JOINT LeftHandIndex2
									{
										OFFSET	 0.000000	 0.000000	 0.047237
										CHANNELS 3 Zrotation Xrotation Yrotation
										JOINT LeftHandIndex3
										{
											OFFSET	-0.004284	-0.000551	 0.038165
											CHANNELS 3 Zrotation Xrotation Yrotation
											End Site
											{
												OFFSET	-0.004284	-0.000551	 0.038165
											}
										}
									}
								}
							}
						}
					}
				}
				JOINT Neck
				{
					OFFSET	 0.000000	 0.000000	 0.176489
					CHANNELS 3 Zrotation Xrotation Yrotation
					JOINT Head
					{
						OFFSET	 0.000000	-0.001747	 0.077940
						CHANNELS 3 Zrotation Xrotation Yrotation
						End Site
						{
							OFFSET	 0.000000	-0.001747	 0.077940
						}
					}
				}
				JOINT RightShoulder
				{
					OFFSET	-0.080363	 0.000306	 0.159706
					CHANNELS 3 Zrotation Xrotation Yrotation
					JOINT RightArm
					{
						OFFSET	 0.000000	 0.000000	 0.164196
						CHANNELS 3 Zrotation Xrotation Yrotation
						JOINT RightForeArm
						{
							OFFSET	 0.000000	 0.000000	 0.365611
							CHANNELS 3 Zrotation Xrotation Yrotation
							JOINT RightHand
							{
								OFFSET	 0.000000	 0.000000	 0.360648
								CHANNELS 3 Zrotation Xrotation Yrotation
								JOINT RightHandIndex1
								{
									OFFSET	 0.000000	 0.000000	 0.069977
									CHANNELS 3 Zrotation Xrotation Yrotation
									JOINT RightHandIndex2
									{
										OFFSET	 0.000000	 0.000000	 0.052305
										CHANNELS 3 Zrotation Xrotation Yrotation
										JOINT RightHandIndex3
										{
											OFFSET	 0.009002	-0.000782	 0.042196
											CHANNELS 3 Zrotation Xrotation Yrotation
											End Site
											{
												OFFSET	 0.009002	-0.000782	 0.042196
											}
										}
									}
								}
							}
						}
					}
				}
			}
		}
	}
}
MOTION
Frames:    10
Frame Time: 0.03333334
-0.640031	-0.128315	 1.267467	-159.629900	 9.902291	 9.294720	-8.108542	-12.758460	 165.774300	-9.059267	-31.551990	-3.732869	-69.607250	 83.717550	 65.998950	-2.385833	 28.452760	 0.000004	 34.798770	-49.584310	-170.588300	-28.289690	-57.960960	-14.867690	 32.620830	 36.839070	-40.921660	 2.384659	 28.388700	-0.000001	 23.818960	-21.303560	-14.070230	 45.175610	 27.806950	 0.687397	-4.014208	-4.371584	-5.605915	-91.776080	 78.527400	 179.999900	 23.319490	 53.238870	-31.147030	-8.477312	-6.578961	-44.846020	 9.005636	 11.756900	-4.295389	-4.131196	 21.524690	 0.986298	-5.167839	 0.733520	 3.519257	-1.378229	 35.397820	-2.634230	-14.046220	 16.441080	-7.701274	-25.047510	 3.680775	 5.356613	 89.782160	 78.203870	 179.999900	 3.966657	 64.920430	-11.653760	-2.469953	-8.357005	 27.984480	 94.352480	-14.946150	-3.000646	 5.715225	 19.176060	-3.692089	 5.027514	 0.245388	-9.378011	-2.350882	 35.473990	 5.254307
-0.639822	-0.128007	 1.267731	-159.902000	 9.935853	 9.589645	-7.809803	-12.796170	 165.471100	-8.924887	-31.605880	-3.667351	-72.976550	 84.419110	 69.030370	-2.385833	 28.452760	 0.000004	 35.369750	-49.625400	-170.632500	-26.027120	-58.104060	-12.925870	 38.860320	 41.293500	-43.825220	 2.384659	 28.388700	-0.000001	 23.642780	-21.968970	-14.722380	 45.457230	 28.691490	 0.430045	-4.015225	-4.631518	-5.597427	-91.776100	 78.527420	 179.999900	 23.466650	 53.137630	-31.276320	-8.294540	-6.745377	-44.765150	 9.374995	 11.982580	-4.416348	-4.131196	 21.524690	 0.986298	-5.167839	 0.733520	 3.519257	-1.378229	 35.397820	-2.634230	-13.973680	 16.379920	-7.909111	-25.094140	 3.571764	 5.281553	 89.782130	 78.203890	 180.000000	 4.120595	 64.903240	-11.768940	-2.804990	-8.543427	 27.964440	 93.917820	-14.690720	-2.505933	 5.715225	 19.176060	-3.692089	 5.027514	 0.245388	-9.378011	-2.350882	 35.473990	 5.254307
-0.639105	-0.127447	 1.268307	-160.024100	 9.689638	 9.449826	-6.673205	-12.530770	 165.626400	-8.747013	-31.188070	-3.530841	-90.085550	 85.960850	 85.726570	-2.385833	 28.452760	 0.000004	 34.717520	-49.439830	-170.923000	-23.358100	-58.435730	-10.660460	 45.076240	 45.360080	-46.969260	 2.384659	 28.388700	-0.000001	 23.317920	-22.833530	-15.309900	 45.985340	 30.828780	-0.741022	-4.073411	-5.608716	-5.138669	-91.776170	 78.527420	-180.000000	 23.370620	 53.116090	-31.158490	-8.014701	-7.006706	-44.674580	 9.679404	 12.132380	-4.535827	-4.131196	 21.524690	 0.986298	-5.167839	 0.733520	 3.519257	-1.378229	 35.397820	-2.634230	-14.007220	 16.260770	-7.777699	-25.095580	 3.528203	 5.049726	 89.782160	 78.203900	 179.999900	 4.185683	 64.944410	-11.648450	-3.435058	-8.784012	 27.631700	 93.657880	-12.902890	-0.990510	 5.715225	 19.176060	-3.692089	 5.027514	 0.245388	-9.378011	-2.350882	 35.473990	 5.254307
-0.638249	-0.126742	 1.268637	-160.454000	 9.708346	 9.493698	-5.556069	-12.577240	 165.586500	-8.434521	-30.971210	-3.346386	-111.268200	 86.396960	 106.502000	-2.385833	 28.452760	 0.000004	 33.629940	-49.665710	-171.395100	-21.154710	-58.482710	-8.767190	 49.134380	 48.211690	-48.995250	 2.384659	 28.388700	-0.000001	 23.490220	-23.217360	-15.665940	 46.152160	 31.630480	-0.817465	-4.087207	-5.876798	-5.092352	-91.776230	 78.527400	-180.000000	 23.270470	 53.066370	-31.055860	-7.737440	-7.279117	-44.642690	 9.976307	 12.276910	-4.655279	-4.131196	 21.524690	 0.986298	-5.167839	 0.733520	 3.519257	-1.378229	 35.397820	-2.634230	-14.021820	 16.279080	-7.701936	-25.078700	 3.437242	 4.872064	 89.782150	 78.203900	 179.999900	 4.285650	 65.002550	-11.540660	-4.087312	-9.039469	 27.322890	 92.892380	-12.225650	-0.071438	 5.715225	 19.176060	-3.692089	 5.027514	 0.245388	-9.378011	-2.350882	 35.473990	 5.254307
-0.637376	-0.125994	 1.268634	-161.264900	 10.027390	 9.790773	-4.539310	-13.005790	 165.303900	-7.958240	-31.050750	-3.106309	-121.685900	 85.922200	 116.452500	-2.385833	 28.452760	 0.000004	 32.569910	-50.298730	-171.941500	-19.721460	-58.221150	-7.515181	 49.876790	 49.712380	-48.765110	 2.384659	 28.388700	-0.000001	 24.284810	-23.024650	-15.814820	 45.828000	 30.899350	 0.504546	-4.057816	-5.317043	-5.549866	-91.776160	 78.527400	 180.000000	 23.167460	 52.974270	-30.980110	-7.477878	-7.555795	-44.694400	 10.249080	 12.409050	-4.770041	-4.131196	 21.524690	 0.986298	-5.167839	 0.733520	 3.519257	-1.378229	 35.397820	-2.634230	-14.011360	 16.475750	-7.702004	-25.038570	 3.288304	 4.773366	 89.782070	 78.203890	-180.000000	 4.301191	 65.080750	-11.341050	-4.738226	-9.303457	 27.052640	 91.548510	-12.963930	-0.041206	 5.715225	 19.176060	-3.692089	 5.027514	 0.245388	-9.378011	-2.350882	 35.473990	 5.254307
-0.635191	-0.124049	 1.268711	-162.100900	 10.534650	 9.646561	-3.203052	-13.410240	 165.479600	-6.890404	-30.680900	-2.524421	-154.234600	 84.996640	 147.830800	-2.385833	 28.452760	 0.000004	 33.279220	-50.586880	-171.187200	-18.376410	-57.984860	-6.349189	 53.783590	 51.885620	-51.123570	 2.384659	 28.388700	-0.000001	 25.241410	-23.138470	-15.315310	 45.609840	 30.606030	 1.526720	-4.003269	-4.960867	-6.159929	-91.776210	 78.527380	-180.000000	 23.119160	 52.879880	-31.036200	-7.106892	-7.908409	-44.605610	 10.648440	 12.618010	-4.944892	-4.131196	 21.524690	 0.986298	-5.167839	 0.733520	 3.519257	-1.378229	 35.397820	-2.634230	-13.918880	 16.819770	-7.778342	-24.963290	 3.182199	 5.009411	 89.782150	 78.203890	 180.000000	 3.881428	 65.089580	-10.618600	-5.643050	-9.689330	 26.742130	 89.641110	-13.428480	 0.283182	 5.715225	 19.176060	-3.692089	 5.027514	 0.245388	-9.378011	-2.350882	 35.473990	 5.254307
-0.634146	-0.123103	 1.268767	-162.262400	 10.726120	 9.404233	-2.792696	-13.469670	 165.732200	-6.431080	-30.384550	-2.268903	-167.579100	 84.217410	 160.670900	-2.385833	 28.452760	 0.000004	 34.252680	-50.472080	-170.409600	-18.164400	-57.962650	-6.167086	 56.087220	 52.534470	-52.850540	 2.384659	 28.388700	-0.000001	 25.493090	-23.325350	-14.910810	 45.617830	 30.786420	 1.552510	-3.985526	-5.003313	-6.336278	-91.776200	 78.527420	-180.000000	 23.132220	 52.863050	-31.106900	-6.984070	-8.009009	-44.520300	 10.782980	 12.691680	-5.006191	-4.131196	 21.524690	 0.986298	-5.167839	 0.733520	 3.519257	-1.378229	 35.397820	-2.634230	-13.862090	 16.953800	-7.829502	-24.932740	 3.184159	 5.214255	 89.782100	 78.203920	 180.000000	 3.611538	 65.057570	-10.246010	-5.931397	-9.818676	 26.661700	 89.021930	-13.393890	 0.509012	 5.715225	 19.176060	-3.692089	 5.027514	 0.245388	-9.378011	-2.350882	 35.473990	 5.254307
-0.631854	-0.121089	 1.268922	-162.285700	 10.979020	 8.659879	-2.122951	-13.323540	 166.482900	-5.610647	-29.559450	-1.806684	 172.482100	 82.125850	 179.778800	-2.385833	 28.452760	 0.000004	 36.664400	-49.832520	-168.508400	-17.937990	-58.047720	-5.979827	 61.593000	 53.507950	-57.195650	 2.384659	 28.388700	-0.000001	 25.785020	-23.761260	-13.858600	 45.753090	 31.534210	 0.961481	-3.951527	-5.390912	-6.444502	-91.776200	 78.527420	-180.000000	 23.160870	 52.863830	-31.238480	-6.770759	-8.163534	-44.305930	 11.020660	 12.825970	-5.116579	-4.131196	 21.524690	 0.986298	-5.167839	 0.733520	 3.519257	-1.378229	 35.397820	-2.634230	-13.717430	 17.125080	-7.953967	-24.885800	 3.273339	 5.749052	 89.782120	 78.203900	 180.000000	 3.033842	 64.974330	-9.477578	-6.357139	-9.994992	 26.511520	 88.077190	-13.140070	 1.305637	 5.715225	 19.176060	-3.692089	 5.027514	 0.245388	-9.378011	-2.350882	 35.473990	 5.254307
-0.628943	-0.118606	 1.269170	-161.795700	 11.064070	 7.356392	-1.568582	-12.728940	 167.752900	-4.857642	-28.186220	-1.373334	 156.914700	 79.063640	-165.213000	-2.385833	 28.452760	 0.000004	 40.179780	-48.333770	-165.844000	-18.000040	-58.367420	-6.053424	 69.503540	 53.914990	-63.650960	 2.384659	 28.388700	-0.000001	 25.819350	-24.291060	-12.165650	 46.095260	 32.862980	-0.685413	-3.904651	-6.258918	-6.223716	-91.776180	 78.527420	-180.000000	 23.187930	 52.932910	-31.368980	-6.576143	-8.265252	-43.982520	 11.248920	 12.958830	-5.225386	-4.131196	 21.524690	 0.986298	-5.167839	 0.733520	 3.519257	-1.378229	 35.397820	-2.634230	-13.498110	 17.164690	-8.134834	-24.856560	 3.519322	 6.577716	 89.782190	 78.203900	 179.999900	 2.336133	 64.845150	-8.583758	-6.603922	-10.065370	 26.354660	 87.455570	-12.541840	 2.816706	 5.715225	 19.176060	-3.692089	 5.027514	 0.245388	-9.378011	-2.350882	 35.473990	 5.254307
-0.625269	-0.115892	 1.268995	-161.611500	 10.762950	 6.527352	-1.754232	-11.625800	 168.527400	-3.991740	-27.121860	-0.930128	 153.040500	 77.909130	-161.948300	-2.385833	 28.452760	 0.000004	 41.744520	-46.881780	-164.826700	-17.724220	-58.294650	-5.830017	 72.909820	 54.799420	-65.720830	 2.384659	 28.388700	-0.000001	 26.370030	-23.370600	-10.748500	 45.720690	 32.317460	-1.248947	-3.717143	-6.245659	-5.805418	-91.776180	 78.527360	-180.000000	 23.217590	 52.770530	-31.429500	-6.412210	-8.396290	-43.873330	 11.490180	 13.105070	-5.347937	-4.131196	 21.524690	 0.986298	-5.167839	 0.733520	 3.519257	-1.378229	 35.397820	-2.634230	-13.219480	 17.138200	-8.505120	-24.866040	 3.797147	 7.565315	 89.782120	 78.203830	 180.000000	 1.017788	 64.833540	-7.061306	-6.602868	-9.998836	 26.206800	 86.319500	-14.535730	 4.220747	 5.715225	 19.176060	-3.692089	 5.027514	 0.245388	-9.378011	-2.350882	 35.473990	 5.254307
